<?xml version="1.0" encoding="utf-8"?>
<!-- Generator: Adobe Illustrator 21.1.0, SVG Export Plug-In . SVG Version: 6.00 Build 0)  -->
<svg version="1.1" id="Layer_1" xmlns="http://www.w3.org/2000/svg" xmlns:xlink="http://www.w3.org/1999/xlink" x="0px" y="0px"
	 viewBox="0 0 1920 720" style="enable-background:new 0 0 1920 720;" xml:space="preserve">
<style type="text/css">
	.st0{fill:#ED2024;}
	.st1{fill:#243E90;}
</style>
<g>
	<path class="st0" d="M156,67.6c16,0,29.7,1.8,41,5.4c11.3,3.6,20.7,8.7,28,15.2c7.3,6.5,12.7,14.3,16.2,23.4
		c3.5,9.1,5.2,19.1,5.2,30c0,15.7-3.3,28.4-9.8,38c-6.5,9.6-16.2,16.9-29,22c12.8,5.3,22.7,13,29.6,23c6.9,10,10.4,22.9,10.4,38.6
		c0,10.9-1.7,20.9-5.2,30c-3.5,9.1-8.9,16.9-16.2,23.4c-7.3,6.5-16.7,11.7-28,15.4c-11.3,3.7-25,5.6-41,5.6h-120
		c-14.9,0-22.4-7.3-22.4-22v-226c0-14.7,7.5-22,22.4-22H156z M61.2,181.6h96c27.7,0,41.6-10.8,41.6-32.4c0-10.7-3.3-19.2-9.8-25.6
		c-6.5-6.4-17-9.6-31.4-9.6H66.4c-3.5,0-5.2,1.6-5.2,4.8V181.6z M61.2,286.4c0,2.9,1.7,4.4,5.2,4.4h92c14.4,0,24.9-3.1,31.6-9.2
		c6.7-6.1,10-14.8,10-26c0-23.2-13.9-34.8-41.6-34.8H61.2V286.4z"/>
	<path class="st0" d="M478.8,67.6c15.2,0,28.3,2.2,39.2,6.6c10.9,4.4,19.9,10.3,27,17.6c7.1,7.3,12.3,15.9,15.6,25.8
		c3.3,9.9,5,20.1,5,30.8c0,8.5-1.1,17-3.2,25.4c-2.1,8.4-5.5,16.3-10,23.6c-4.5,7.3-10.4,13.8-17.6,19.4c-7.2,5.6-16,9.9-26.4,12.8
		l62.8,108h-52.4l-61.6-104.4h-70.4c-4.5,0-6.8,2.3-6.8,6.8v97.6h-47.2V230.8c0-15.2,3.3-26.1,10-32.8c6.7-6.7,17.5-10,32.4-10
		h105.2c6.7,0,12.4-1.1,17.2-3.2c4.8-2.1,8.7-4.9,11.6-8.4c2.9-3.5,5.1-7.5,6.6-12c1.5-4.5,2.2-9.2,2.2-14c0-9.6-3-17.9-9-25
		c-6-7.1-15.5-10.6-28.6-10.6h-148V67.6H478.8z"/>
	<path class="st0" d="M676.4,337.6h-52l94.8-240c5.1-12.8,12.2-21.8,21.4-27c9.2-5.2,21-7.8,35.4-7.8c14.1,0,25.8,2.6,35,7.8
		c9.2,5.2,16.2,14.2,21,27l91.2,240h-52.4l-82-217.2c-2.4-6.1-6.8-9.2-13.2-9.2c-6.4,0-10.9,3.1-13.6,9.2L676.4,337.6z"/>
	<path class="st0" d="M1041.2,67.6v270H994v-270H1041.2z"/>
	<path class="st0" d="M1181.6,67.6V244c0,6.4,0.9,12.5,2.6,18.2c1.7,5.7,4.7,10.7,9,14.8c4.3,4.1,9.9,7.4,17,9.8
		c7.1,2.4,15.9,3.6,26.6,3.6h104.8v47.2H1234c-17.9,0-33.1-2.3-45.8-7c-12.7-4.7-23-11.1-31-19.4c-8-8.3-13.8-18.1-17.4-29.4
		c-3.6-11.3-5.4-23.8-5.4-37.4V67.6H1181.6z"/>
	<path class="st0" d="M1454,67.6V244c0,6.4,0.9,12.5,2.6,18.2c1.7,5.7,4.7,10.7,9,14.8c4.3,4.1,9.9,7.4,17,9.8
		c7.1,2.4,15.9,3.6,26.6,3.6H1614v47.2h-107.6c-17.9,0-33.1-2.3-45.8-7c-12.7-4.7-23-11.1-31-19.4c-8-8.3-13.8-18.1-17.4-29.4
		c-3.6-11.3-5.4-23.8-5.4-37.4V67.6H1454z"/>
	<path class="st0" d="M1904.8,67.6v47.2h-135.2c-14.4,0-24.8,3.1-31.2,9.2c-6.4,6.1-9.6,14.4-9.6,24.8c0,21.3,13.7,32,41.2,32h132.8
		v42.8h-134c-27.5,0-41.2,10.9-41.2,32.8c0,10.7,3.3,19,10,25c6.7,6,16.9,9,30.8,9h136.8v47.2h-136.8c-16,0-29.7-1.9-41-5.6
		c-11.3-3.7-20.7-8.9-28-15.4c-7.3-6.5-12.7-14.3-16-23.4c-3.3-9.1-5-18.8-5-29.2c0-15.5,3.3-28.3,10-38.6
		c6.7-10.3,16.3-18.1,28.8-23.4c-25.3-10.4-38-30.7-38-60.8c0-10.7,1.7-20.5,5.2-29.6c3.5-9.1,8.9-16.9,16.2-23.4
		c7.3-6.5,16.7-11.6,28-15.2c11.3-3.6,25-5.4,41-5.4H1904.8z"/>
	<g>
		<path class="st1" d="M112,432.9c-5.2-5.3-7.8-11.6-7.8-19.1c0-7.4,2.6-13.8,7.8-19.1c5.3-5.3,11.7-7.9,19.1-7.9
			c7.5,0,13.8,2.6,19.1,7.9c5.3,5.3,7.9,11.7,7.9,19.1c0,7.5-2.6,13.8-7.9,19.1s-11.6,7.9-19.1,7.9
			C123.7,440.9,117.3,438.2,112,432.9z M112,540.9c-5.2-5.3-7.8-11.6-7.8-19.1c0-7.4,2.6-13.8,7.8-19c5.3-5.3,11.7-7.9,19.1-7.9
			c7.5,0,13.8,2.6,19.1,7.9s7.9,11.6,7.9,19c0,7.5-2.6,13.8-7.9,19.1s-11.6,7.9-19.1,7.9C123.7,548.8,117.3,546.2,112,540.9z"/>
	</g>
	<g>
		<path class="st1" d="M378.6,432.9c-5.2-5.3-7.8-11.6-7.8-19.1c0-7.4,2.6-13.8,7.8-19.1c5.3-5.3,11.7-7.9,19.1-7.9
			c7.5,0,13.8,2.6,19.1,7.9c5.3,5.3,7.9,11.7,7.9,19.1c0,7.5-2.6,13.8-7.9,19.1s-11.6,7.9-19.1,7.9
			C390.3,440.9,383.9,438.2,378.6,432.9z M378.6,540.9c-5.2-5.3-7.8-11.6-7.8-19.1c0-7.4,2.6-13.8,7.8-19.1
			c5.3-5.3,11.7-7.9,19.1-7.9c7.5,0,13.8,2.6,19.1,7.9s7.9,11.6,7.9,19.1c0,7.5-2.6,13.8-7.9,19.1s-11.6,7.9-19.1,7.9
			C390.3,548.8,383.9,546.2,378.6,540.9z M378.6,649c-5.2-5.3-7.8-11.7-7.8-19.1c0-7.5,2.6-13.8,7.8-19.1c5.3-5.3,11.7-7.9,19.1-7.9
			c7.5,0,13.8,2.6,19.1,7.9s7.9,11.6,7.9,19.1c0,7.4-2.6,13.8-7.9,19.1c-5.3,5.2-11.6,7.8-19.1,7.8
			C390.3,656.8,383.9,654.2,378.6,649z M486.7,540.9c-5.3-5.3-7.9-11.6-7.9-19.1c0-7.4,2.6-13.8,7.9-19.1s11.6-7.9,19.1-7.9
			c7.4,0,13.8,2.6,19.1,7.9s7.9,11.6,7.9,19.1c0,7.5-2.6,13.8-7.9,19.1s-11.6,7.9-19.1,7.9C498.3,548.8,491.9,546.2,486.7,540.9z"/>
	</g>
	<g>
		<path class="st1" d="M754.6,432.9c-5.2-5.3-7.8-11.6-7.8-19.1c0-7.4,2.6-13.8,7.8-19.1c5.3-5.3,11.7-7.9,19.1-7.9
			c7.5,0,13.8,2.6,19.1,7.9c5.3,5.3,7.9,11.7,7.9,19.1c0,7.5-2.6,13.8-7.9,19.1s-11.6,7.9-19.1,7.9
			C766.3,440.9,759.9,438.2,754.6,432.9z"/>
	</g>
	<g>
		<path class="st1" d="M1218.8,432.9c-5.2-5.3-7.8-11.6-7.8-19.1c0-7.4,2.6-13.8,7.8-19.1c5.3-5.3,11.7-7.9,19.1-7.9
			c7.5,0,13.8,2.6,19.1,7.9c5.3,5.3,7.9,11.7,7.9,19.1c0,7.5-2.6,13.8-7.9,19.1s-11.6,7.9-19.1,7.9
			C1230.5,440.9,1224.1,438.2,1218.8,432.9z M1218.8,540.9c-5.2-5.3-7.8-11.6-7.8-19.1c0-7.4,2.6-13.8,7.8-19
			c5.3-5.3,11.7-7.9,19.1-7.9c7.5,0,13.8,2.6,19.1,7.9s7.9,11.6,7.9,19c0,7.5-2.6,13.8-7.9,19.1s-11.6,7.9-19.1,7.9
			C1230.5,548.8,1224.1,546.2,1218.8,540.9z M1218.8,649c-5.2-5.3-7.8-11.7-7.8-19.1c0-7.5,2.6-13.8,7.8-19.1
			c5.3-5.3,11.7-7.9,19.1-7.9c7.5,0,13.8,2.6,19.1,7.9s7.9,11.6,7.9,19.1c0,7.4-2.6,13.8-7.9,19.1c-5.3,5.2-11.6,7.8-19.1,7.8
			C1230.5,656.8,1224.1,654.2,1218.8,649z"/>
	</g>
	<g>
		<path class="st1" d="M1491.2,432.9c-5.2-5.3-7.8-11.6-7.8-19.1c0-7.4,2.6-13.8,7.8-19.1c5.3-5.3,11.7-7.9,19.1-7.9
			c7.5,0,13.8,2.6,19.1,7.9c5.3,5.3,7.9,11.7,7.9,19.1c0,7.5-2.6,13.8-7.9,19.1s-11.6,7.9-19.1,7.9
			C1502.9,440.9,1496.5,438.2,1491.2,432.9z M1491.2,540.9c-5.2-5.3-7.8-11.6-7.8-19.1c0-7.4,2.6-13.8,7.8-19
			c5.3-5.3,11.7-7.9,19.1-7.9c7.5,0,13.8,2.6,19.1,7.9s7.9,11.6,7.9,19c0,7.5-2.6,13.8-7.9,19.1s-11.6,7.9-19.1,7.9
			C1502.9,548.8,1496.5,546.2,1491.2,540.9z M1491.2,649c-5.2-5.3-7.8-11.7-7.8-19.1c0-7.5,2.6-13.8,7.8-19.1
			c5.3-5.3,11.7-7.9,19.1-7.9c7.5,0,13.8,2.6,19.1,7.9s7.9,11.6,7.9,19.1c0,7.4-2.6,13.8-7.9,19.1c-5.3,5.2-11.6,7.8-19.1,7.8
			C1502.9,656.8,1496.5,654.2,1491.2,649z"/>
	</g>
	<g>
		<g>
			<path class="st1" d="M1718.6,432.9c-5.2-5.3-7.8-11.6-7.8-19.1c0-7.4,2.6-13.8,7.8-19.1c5.3-5.3,11.7-7.9,19.1-7.9
				c7.5,0,13.8,2.6,19.1,7.9c5.3,5.3,7.9,11.7,7.9,19.1c0,7.5-2.6,13.8-7.9,19.1s-11.6,7.9-19.1,7.9
				C1730.3,440.9,1723.9,438.2,1718.6,432.9z M1826.7,540.9c-5.3-5.3-7.9-11.6-7.9-19.1c0-7.4,2.6-13.8,7.9-19s11.6-7.9,19.1-7.9
				c7.4,0,13.8,2.6,19.1,7.9s7.9,11.6,7.9,19c0,7.5-2.6,13.8-7.9,19.1s-11.6,7.9-19.1,7.9C1838.3,548.8,1831.9,546.2,1826.7,540.9z"
				/>
		</g>
	</g>
	<g>
		<path class="st1" d="M944.4,540.9c-5.2-5.3-7.8-11.6-7.8-19.1c0-7.4,2.6-13.8,7.8-19c5.3-5.3,11.7-7.9,19.1-7.9
			c7.5,0,13.8,2.6,19.1,7.9s7.9,11.6,7.9,19c0,7.5-2.6,13.8-7.9,19.1s-11.6,7.9-19.1,7.9C956.1,548.8,949.7,546.2,944.4,540.9z
			 M1052.5,432.9c-5.3-5.3-7.9-11.6-7.9-19.1c0-7.4,2.6-13.8,7.9-19.1c5.3-5.3,11.6-7.9,19.1-7.9c7.4,0,13.8,2.6,19,7.9
			c5.3,5.3,7.9,11.7,7.9,19.1c0,7.5-2.6,13.8-7.9,19.1s-11.6,7.9-19,7.9C1064.1,440.9,1057.7,438.2,1052.5,432.9z"/>
	</g>
</g>
</svg>
